<?xml version="1.0" encoding="iso-8859-1"?>
<!-- Generator: Adobe Illustrator 19.0.0, SVG Export Plug-In . SVG Version: 6.00 Build 0)  -->
<svg version="1.1" id="Capa_1" xmlns="http://www.w3.org/2000/svg" xmlns:xlink="http://www.w3.org/1999/xlink" x="0px" y="0px"
	 viewBox="0 0 60 60" style="enable-background:new 0 0 60 60;" xml:space="preserve">
<g>
	<g>
		<path d="M59,11H13c-0.6,0-1,0.4-1,1v47c0,0.6,0.4,1,1,1h46c0.6,0,1-0.4,1-1V12C60,11.4,59.6,11,59,11z M58,13v2H14v-2H58z M14,58
			V17h44v41H14z"/>
		<path d="M59,0H1C0.4,0,0,0.4,0,1v6c0,0.6,0.4,1,1,1h58c0.6,0,1-0.4,1-1V1C60,0.4,59.6,0,59,0z M58,6H2V2h56V6z"/>
		<path d="M9,11H1c-0.6,0-1,0.4-1,1v40c0,0.6,0.4,1,1,1h3h2h3c0.6,0,1-0.4,1-1V12C10,11.4,9.6,11,9,11z M8,13v3H2v-3H8z M4,23v3H2
			v-3H4z M2,21v-3h2v3H2z M4,28v3H2v-3H4z M4,33v3H2v-3H4z M4,38v3H2v-3H4z M4,43v3H2v-3H4z M6,43h2v3H6V43z M6,41v-3h2v3H6z M6,36
			v-3h2v3H6z M6,31v-3h2v3H6z M6,26v-3h2v3H6z M6,21v-3h2v3H6z M2,51v-3h2v3H2z M6,51v-3h2v3H6z"/>
		<path d="M55,19H17c-0.6,0-1,0.4-1,1v35c0,0.6,0.4,1,1,1h38c0.6,0,1-0.4,1-1V20C56,19.4,55.6,19,55,19z M54,54H18V21h36V54z"/>
		<polygon points="35,42 37,42 37,39 40,39 40,37 37,37 37,34 35,34 35,37 32,37 32,39 35,39 		"/>
		<rect x="4" y="3" width="2" height="2"/>
		<rect x="8" y="3" width="2" height="2"/>
		<rect x="45" y="3" width="11" height="2"/>
	</g>
</g>
<g>
</g>
<g>
</g>
<g>
</g>
<g>
</g>
<g>
</g>
<g>
</g>
<g>
</g>
<g>
</g>
<g>
</g>
<g>
</g>
<g>
</g>
<g>
</g>
<g>
</g>
<g>
</g>
<g>
</g>
</svg>
