<?xml version="1.0" encoding="iso-8859-1"?>
<!-- Generator: Adobe Illustrator 18.1.1, SVG Export Plug-In . SVG Version: 6.00 Build 0)  -->
<svg version="1.1" id="Capa_1" xmlns="http://www.w3.org/2000/svg" xmlns:xlink="http://www.w3.org/1999/xlink" x="0px" y="0px"
	 viewBox="0 0 41.559 41.559" style="enable-background:new 0 0 41.559 41.559;" xml:space="preserve">
<g id="folder">
	<path d="M31.707,36.78H3.021C1.355,36.78,0,35.424,0,33.758V10.53c0-1.665,1.355-3.021,3.021-3.021h0.817l0.458-0.983
		C4.791,5.465,5.865,4.78,7.035,4.78h8.333c1.17,0,2.244,0.686,2.738,1.746l0.458,0.983h13.143c1.665,0,3.021,1.355,3.021,3.021
		v23.229c0,0.505-0.127,1.004-0.366,1.443C33.833,36.174,32.815,36.78,31.707,36.78z M3.021,9.509C2.458,9.509,2,9.967,2,10.53
		v23.229c0,0.563,0.458,1.021,1.021,1.021h28.686c0.375,0,0.719-0.205,0.897-0.534c0.082-0.15,0.123-0.313,0.123-0.487V10.53
		c0-0.562-0.458-1.021-1.021-1.021H17.289l-0.995-2.14c-0.167-0.358-0.53-0.59-0.926-0.59H7.035c-0.396,0-0.759,0.231-0.926,0.59
		l-0.995,2.14H3.021z"/>
	<path d="M33.483,35.722c-0.119,0-0.241-0.021-0.359-0.066c-0.515-0.198-0.772-0.777-0.574-1.293l6.86-17.838
		c0.269-0.547,0.084-0.936-0.006-1.082c-0.091-0.146-0.355-0.483-0.868-0.483h-2.186c-0.553,0-1-0.447-1-1s0.447-1,1-1h2.186
		c1.054,0,2.015,0.535,2.568,1.432c0.555,0.897,0.605,1.996,0.134,2.939l-6.821,17.751C34.264,35.479,33.885,35.722,33.483,35.722z"
		/>
</g>
<g>
</g>
<g>
</g>
<g>
</g>
<g>
</g>
<g>
</g>
<g>
</g>
<g>
</g>
<g>
</g>
<g>
</g>
<g>
</g>
<g>
</g>
<g>
</g>
<g>
</g>
<g>
</g>
<g>
</g>
</svg>
